<?xml version="1.0" standalone="no"?>
<!DOCTYPE svg PUBLIC "-//W3C//DTD SVG 20010904//EN"
 "http://www.w3.org/TR/2001/REC-SVG-20010904/DTD/svg10.dtd">
<svg version="1.0" xmlns="http://www.w3.org/2000/svg"
 width="1024.000000pt" height="271.000000pt" viewBox="0 0 1024.000000 271.000000"
 preserveAspectRatio="xMidYMid meet">

<g transform="translate(0.000000,271.000000) scale(0.100000,-0.100000)"
fill="#000000" stroke="none">
<path d="M1670 2209 c-36 -4 -83 -13 -105 -18 -22 -6 -60 -13 -85 -17 -49 -6
-176 -40 -200 -53 -8 -4 -39 -14 -69 -21 -64 -15 -196 -81 -222 -111 -32 -36
-21 -86 27 -136 9 -10 13 -4 19 23 8 45 68 105 132 134 37 16 243 80 260 80
17 0 -23 -88 -97 -210 -37 -60 -72 -128 -115 -224 -24 -55 -31 -146 -12 -171
9 -11 17 -18 20 -15 2 3 30 57 60 120 31 63 67 133 81 155 40 64 91 156 116
208 18 39 22 60 17 102 l-5 53 61 6 c34 4 100 13 147 21 47 8 109 15 138 16
28 1 52 6 52 10 0 4 -14 19 -31 33 -33 28 -65 31 -189 15z m-303 -371 c-3 -8
-6 -5 -6 6 -1 11 2 17 5 13 3 -3 4 -12 1 -19z m-150 -330 c-3 -8 -6 -5 -6 6
-1 11 2 17 5 13 3 -3 4 -12 1 -19z"/>
<path d="M1954 2054 c3 -8 2 -12 -4 -9 -6 3 -10 1 -10 -5 0 -7 -8 -24 -19 -38
-10 -15 -22 -38 -26 -52 -4 -14 -11 -27 -15 -30 -4 -3 -30 -52 -58 -110 -50
-102 -142 -223 -158 -207 -4 4 4 31 18 59 14 29 28 60 31 70 7 19 -31 58 -41
42 -70 -103 -160 -194 -192 -193 -14 0 -20 3 -13 6 7 2 15 21 19 41 4 20 13
50 21 66 40 78 163 169 183 136 12 -19 22 -8 14 14 -3 9 -17 19 -31 22 -96 24
-222 -89 -242 -219 -7 -40 -5 -52 11 -72 29 -37 69 -33 107 10 34 39 41 42 41
19 0 -19 39 -53 60 -54 9 0 33 23 54 50 21 28 40 50 43 50 3 0 2 -16 -1 -35
-9 -45 5 -70 53 -95 l39 -19 25 57 c30 67 53 100 62 90 4 -3 2 -22 -3 -42 -8
-27 -7 -38 4 -47 19 -15 20 -13 31 40 4 25 13 46 18 48 6 2 22 -17 37 -42 26
-42 78 -85 105 -85 22 0 211 216 199 228 -4 3 -42 -31 -85 -76 -90 -94 -109
-100 -166 -51 -46 41 -47 69 -2 69 53 0 132 45 152 87 16 34 16 36 -3 62 -24
31 -61 32 -94 2 -12 -12 -26 -21 -31 -21 -6 0 -15 -7 -22 -17 -8 -10 -14 -12
-18 -5 -4 5 8 28 25 50 18 21 46 56 62 77 17 20 45 56 63 78 33 43 30 57 -13
57 -31 0 -88 -69 -167 -206 -26 -44 -47 -84 -47 -89 0 -4 -32 -51 -72 -104
-39 -53 -73 -98 -74 -100 -2 -1 -7 0 -12 3 -14 9 23 126 71 226 44 90 64 123
115 188 37 46 38 53 14 75 -24 22 -66 23 -58 1z m216 -252 c0 -39 -112 -113
-151 -100 -11 4 126 118 142 118 5 0 9 -8 9 -18z"/>
<path d="M570 1405 c-56 -18 -124 -74 -150 -126 -28 -53 -27 -145 2 -205 36
-77 139 -134 244 -134 70 0 166 35 209 77 l38 37 -53 23 -53 23 -36 -24 c-63
-43 -149 -40 -196 7 -45 45 -53 91 -27 150 38 85 115 108 207 62 l55 -29 46
20 c26 10 47 23 47 29 1 18 -83 74 -135 90 -63 18 -138 18 -198 0z"/>
<path d="M2365 1366 c-18 -44 -18 -46 -1 -46 8 0 18 9 21 20 8 26 21 25 29 -2
11 -41 7 -48 -27 -48 -44 0 -114 -46 -127 -84 -34 -99 17 -197 112 -212 30 -5
38 -11 38 -28 0 -21 -16 -55 -22 -46 -2 3 -8 14 -14 24 -28 51 -46 18 -19 -34
24 -46 52 -39 78 18 20 43 22 63 22 227 0 196 -9 237 -53 243 -18 3 -26 -4
-37 -32z m25 -109 c0 -15 -97 -63 -108 -53 -4 4 8 21 26 37 33 29 82 39 82 16z"/>
<path d="M1103 1360 c-64 -15 -133 -99 -133 -162 0 -28 -12 -34 -44 -22 -20 8
-21 24 -1 24 13 0 33 46 24 54 -2 1 -23 -1 -47 -6 -83 -18 -91 -80 -13 -112
133 -53 475 -53 559 0 47 31 20 82 -57 104 -29 8 -31 7 -31 -17 0 -17 7 -27
20 -30 28 -7 20 -27 -13 -31 -21 -3 -27 1 -27 15 0 76 -64 162 -135 182 -44
12 -56 12 -102 1z m67 -50 c0 -5 -8 -10 -18 -10 -10 0 -34 -9 -55 -19 -44 -23
-58 -11 -21 18 27 22 94 29 94 11z"/>
<path d="M1503 1341 c-37 -17 -73 -61 -73 -88 0 -4 14 -16 31 -26 28 -15 31
-21 27 -57 l-3 -40 55 -10 c30 -6 67 -13 83 -16 40 -8 53 -38 27 -64 -27 -27
-94 -27 -140 1 -33 21 -35 21 -67 4 -18 -10 -33 -22 -33 -26 0 -4 15 -19 33
-33 66 -50 185 -58 253 -17 61 37 82 138 37 183 -10 9 -49 25 -88 34 -113 26
-120 29 -123 47 -6 30 17 47 63 47 27 0 51 -7 68 -20 31 -25 31 -25 67 2 36
26 28 40 -45 74 -60 29 -116 30 -172 5z"/>
<path d="M2632 1343 c-41 -20 -62 -59 -62 -116 0 -61 44 -101 121 -111 88 -11
119 -24 119 -51 0 -33 -27 -50 -80 -49 -32 0 -57 8 -78 23 -35 25 -59 22 -88
-10 -18 -20 -18 -21 10 -42 45 -33 85 -45 153 -46 113 -2 184 49 186 133 2 70
-49 109 -164 125 -71 9 -96 28 -80 59 21 40 95 40 145 1 l25 -20 31 22 c16 13
30 27 30 31 0 5 -21 22 -47 38 -41 26 -56 30 -117 30 -45 0 -83 -6 -104 -17z"/>
<path d="M1790 1139 l0 -190 43 3 42 3 -3 150 c-3 177 8 164 69 -79 16 -64 26
-76 64 -76 18 0 36 4 39 9 6 9 42 129 66 220 6 23 14 41 17 38 3 -3 4 -65 4
-136 l-2 -131 46 0 45 0 0 190 0 191 -72 -3 -72 -3 -13 -50 c-8 -27 -22 -81
-32 -120 -10 -38 -22 -70 -27 -72 -5 -2 -17 30 -27 71 -9 40 -24 97 -33 125
l-15 51 -69 0 -70 0 0 -191z"/>
<path d="M2492 1139 l-2 -113 22 22 c17 16 23 37 26 85 4 56 1 67 -20 91 l-24
28 -2 -113z"/>
<path d="M1010 1069 c0 -4 16 -20 36 -36 29 -21 50 -28 98 -31 55 -3 66 0 111
29 29 19 44 34 35 35 -43 7 -280 10 -280 3z"/>
</g>
</svg>
